<svg width="20" height="20" viewBox="0 0 20 20" fill="none" xmlns="http://www.w3.org/2000/svg">
<path d="M14.1667 15C14.6087 15 15.0327 15.1756 15.3452 15.4882C15.6578 15.8007 15.8334 16.2247 15.8334 16.6667C15.8334 17.1087 15.6578 17.5326 15.3452 17.8452C15.0327 18.1578 14.6087 18.3334 14.1667 18.3334C13.7247 18.3334 13.3008 18.1578 12.9882 17.8452C12.6756 17.5326 12.5 17.1087 12.5 16.6667C12.5 15.7417 13.2417 15 14.1667 15ZM0.833374 1.66669H3.55837L4.34171 3.33335H16.6667C16.8877 3.33335 17.0997 3.42115 17.256 3.57743C17.4122 3.73371 17.5 3.94567 17.5 4.16669C17.5 4.30835 17.4584 4.45002 17.4 4.58335L14.4167 9.97502C14.1334 10.4834 13.5834 10.8334 12.9584 10.8334H6.75004L6.00004 12.1917L5.97504 12.2917C5.97504 12.3469 5.99699 12.3999 6.03606 12.439C6.07513 12.4781 6.12812 12.5 6.18337 12.5H15.8334V14.1667H5.83337C5.39135 14.1667 4.96742 13.9911 4.65486 13.6785C4.3423 13.366 4.16671 12.942 4.16671 12.5C4.16671 12.2084 4.24171 11.9334 4.36671 11.7L5.50004 9.65835L2.50004 3.33335H0.833374V1.66669ZM5.83337 15C6.2754 15 6.69932 15.1756 7.01188 15.4882C7.32445 15.8007 7.50004 16.2247 7.50004 16.6667C7.50004 17.1087 7.32445 17.5326 7.01188 17.8452C6.69932 18.1578 6.2754 18.3334 5.83337 18.3334C5.39135 18.3334 4.96742 18.1578 4.65486 17.8452C4.3423 17.5326 4.16671 17.1087 4.16671 16.6667C4.16671 15.7417 4.90837 15 5.83337 15ZM13.3334 9.16669L15.65 5.00002H5.11671L7.08337 9.16669H13.3334Z" fill="white"/>
</svg>
