<svg width="100" height="100" viewBox="0 0 100 100" fill="none" xmlns="http://www.w3.org/2000/svg">
<path d="M16.1 68.5625C12.525 54.2625 10.7375 47.1167 14.4917 42.3083C18.2417 37.5 25.6167 37.5 40.3542 37.5H59.6458C74.3875 37.5 81.7542 37.5 85.5083 42.3083C89.2625 47.1125 87.475 54.2667 83.9 68.5625C81.625 77.6583 80.4917 82.2042 77.1 84.8542C73.7083 87.5 69.0208 87.5 59.6458 87.5H40.3542C30.9792 87.5 26.2917 87.5 22.9 84.8542C19.5083 82.2042 18.3708 77.6583 16.1 68.5625Z" stroke="#26BC86" stroke-width="6.25"/>
<path opacity="0.5" d="M81.25 39.5834L78.2917 28.7292C77.15 24.5417 76.5792 22.45 75.4083 20.8709C74.2409 19.302 72.6555 18.0934 70.8333 17.3834C69 16.6667 66.8333 16.6667 62.5 16.6667M18.75 39.5834L21.7083 28.7292C22.85 24.5417 23.4208 22.45 24.5917 20.8709C25.7591 19.302 27.3445 18.0934 29.1667 17.3834C31 16.6667 33.1667 16.6667 37.5 16.6667" stroke="#26BC86" stroke-width="6.25"/>
<path d="M37.5 16.6667C37.5 15.5616 37.939 14.5018 38.7204 13.7204C39.5018 12.939 40.5616 12.5 41.6667 12.5H58.3333C59.4384 12.5 60.4982 12.939 61.2796 13.7204C62.061 14.5018 62.5 15.5616 62.5 16.6667C62.5 17.7717 62.061 18.8315 61.2796 19.6129C60.4982 20.3943 59.4384 20.8333 58.3333 20.8333H41.6667C40.5616 20.8333 39.5018 20.3943 38.7204 19.6129C37.939 18.8315 37.5 17.7717 37.5 16.6667Z" stroke="#26BC86" stroke-width="6.25"/>
<path opacity="0.5" d="M33.3335 54.1667V70.8334M66.6668 54.1667V70.8334M50.0002 54.1667V70.8334" stroke="#26BC86" stroke-width="6.25" stroke-linecap="round" stroke-linejoin="round"/>
</svg>
