<svg width="84" height="84" viewBox="0 0 84 84" fill="none" xmlns="http://www.w3.org/2000/svg">
<path d="M5.66667 1.24999C5.38058 0.942961 5.03558 0.696702 4.65225 0.525902C4.26892 0.355102 3.85511 0.263261 3.43551 0.255857C3.01592 0.248454 2.59913 0.32564 2.21001 0.482811C1.8209 0.639981 1.46742 0.873917 1.17068 1.17066C0.873932 1.46741 0.639997 1.82088 0.482826 2.21C0.325655 2.59912 0.248469 3.0159 0.255873 3.4355C0.263276 3.85509 0.355117 4.2689 0.525917 4.65223C0.696717 5.03556 0.942976 5.38056 1.25 5.66666L6.5125 10.9333C5.19276 13.0691 4.49575 15.531 4.5 18.0417V65.9583C4.5 68.5667 5.2375 71 6.5125 73.0667L35.3708 44.2083C36.1458 43.4333 37.0208 42.825 37.9542 42.375L44.1625 48.5833C43.5724 48.0168 42.7836 47.7043 41.9656 47.7129C41.1477 47.7214 40.3656 48.0504 39.7875 48.6292L10.9333 77.4875C13 78.7625 15.4333 79.5 18.0417 79.5H65.9583C68.5667 79.5 71 78.7625 73.0667 77.4875L78.3292 82.7542C78.9154 83.3404 79.7105 83.6697 80.5396 83.6697C81.3687 83.6697 82.1638 83.3404 82.75 82.7542C83.3363 82.1679 83.6656 81.3728 83.6656 80.5437C83.6656 79.7147 83.3363 78.9196 82.75 78.3333L5.66667 1.24999ZM79.5 65.9583V66.2417L17.7583 4.49999H65.9583C69.5498 4.49999 72.9942 5.9267 75.5337 8.46625C78.0733 11.0058 79.5 14.4502 79.5 18.0417V65.9583ZM60.75 31.5833C62.9601 31.5833 65.0798 30.7053 66.6426 29.1425C68.2054 27.5797 69.0833 25.4601 69.0833 23.25C69.0833 21.0399 68.2054 18.9202 66.6426 17.3574C65.0798 15.7946 62.9601 14.9167 60.75 14.9167C58.5399 14.9167 56.4202 15.7946 54.8574 17.3574C53.2946 18.9202 52.4167 21.0399 52.4167 23.25C52.4167 25.4601 53.2946 27.5797 54.8574 29.1425C56.4202 30.7053 58.5399 31.5833 60.75 31.5833Z" fill="#26BC86"/>
</svg>
