<svg width="40" height="40" viewBox="0 0 40 40" fill="none" xmlns="http://www.w3.org/2000/svg">
<path d="M24.1667 36.6516V30.8333C24.1667 29.275 24.1667 28.4966 23.8317 27.9166C23.6123 27.5366 23.2967 27.221 22.9167 27.0016C22.3367 26.6666 21.5583 26.6666 20 26.6666C18.4417 26.6666 17.6633 26.6666 17.0833 27.0016C16.7033 27.221 16.3877 27.5366 16.1683 27.9166C15.8333 28.4966 15.8333 29.275 15.8333 30.8333V36.6516H24.1667Z" fill="#26BC86"/>
<path fill-rule="evenodd" clip-rule="evenodd" d="M9.55334 20C8.07 20 6.755 19.3733 5.83334 18.3883V23.3333C5.83334 29.6183 5.83334 32.7617 7.78667 34.7133C9.35834 36.2867 11.7 36.5917 15.8333 36.6517H24.1667C28.3 36.5917 30.6417 36.285 32.2133 34.7133C34.1667 32.7617 34.1667 29.6183 34.1667 23.3333V18.39C33.4966 19.1034 32.6353 19.6089 31.6857 19.8462C30.7361 20.0834 29.7383 20.0424 28.8114 19.7281C27.8845 19.4137 27.0676 18.8393 26.4583 18.0733C25.8489 17.3073 25.4729 16.3822 25.375 15.4083L25.2533 14.195C25.3253 14.9256 25.2441 15.6632 25.0149 16.3606C24.7857 17.058 24.4135 17.6999 23.9221 18.2454C23.4308 18.7908 22.831 19.2277 22.1612 19.5283C21.4914 19.8288 20.7663 19.9863 20.0322 19.9907C19.2981 19.9951 18.5712 19.8464 17.8978 19.5539C17.2245 19.2615 16.6195 18.8318 16.1216 18.2924C15.6237 17.7529 15.2438 17.1155 15.0062 16.4209C14.7686 15.7263 14.6785 14.9897 14.7417 14.2583L14.6267 15.4083C14.5006 16.6664 13.9118 17.8328 12.9743 18.6813C12.0369 19.5297 10.8177 19.9997 9.55334 20ZM24.1667 30.8333V36.6517H15.8333V30.8333C15.8333 29.275 15.8333 28.4967 16.1683 27.9167C16.3877 27.5367 16.7033 27.2211 17.0833 27.0017C17.6633 26.6667 18.4417 26.6667 20 26.6667C21.5583 26.6667 22.3367 26.6667 22.9167 27.0017C23.2967 27.2211 23.6123 27.5367 23.8317 27.9167C24.1667 28.4967 24.1667 29.275 24.1667 30.8333Z" fill="#404959"/>
<path d="M15.8333 3.33331H24.1667L25.2533 14.195C25.3249 14.9279 25.2424 15.6677 25.0109 16.3669C24.7795 17.066 24.4043 17.7089 23.9096 18.2544C23.4148 18.7998 22.8113 19.2357 22.138 19.534C21.4647 19.8323 20.7364 19.9864 20 19.9864C19.2636 19.9864 18.5353 19.8323 17.862 19.534C17.1887 19.2357 16.5852 18.7998 16.0904 18.2544C15.5957 17.7089 15.2205 17.066 14.9891 16.3669C14.7576 15.6677 14.6751 14.9279 14.7467 14.195L15.8333 3.33331Z" fill="#26BC86"/>
<path d="M5.55 8.91831C5.84667 7.43498 5.995 6.69331 6.29667 6.09165C6.61117 5.46487 7.05401 4.91126 7.59641 4.46677C8.13881 4.02228 8.76864 3.69686 9.445 3.51165C10.095 3.33331 10.85 3.33331 12.3633 3.33331H15.835L14.6267 15.4083C14.561 16.0979 14.3555 16.7669 14.0228 17.3745C13.6901 17.9821 13.2371 18.5155 12.6914 18.9423C12.1457 19.369 11.5188 19.6801 10.849 19.8566C10.1791 20.0331 9.48032 20.0712 8.79522 19.9688C8.11011 19.8663 7.45307 19.6253 6.86416 19.2606C6.27525 18.8958 5.76682 18.4149 5.36989 17.8472C4.97297 17.2795 4.69585 16.6368 4.55546 15.9585C4.41507 15.2801 4.41435 14.5803 4.55333 13.9016L5.55 8.91831ZM34.45 8.91831C34.1533 7.43498 34.005 6.69331 33.7033 6.09165C33.389 5.46504 32.9464 4.91154 32.4043 4.46706C31.8622 4.02259 31.2327 3.69707 30.5567 3.51165C29.9067 3.33331 29.15 3.33331 27.6367 3.33331H24.1667L25.375 15.4083C25.4388 16.0994 25.6429 16.7701 25.9749 17.3795C26.3069 17.989 26.7598 18.5242 27.3058 18.9525C27.8519 19.3808 28.4796 19.6932 29.1506 19.8705C29.8215 20.0477 30.5216 20.0862 31.208 19.9836C31.8943 19.8809 32.5525 19.6392 33.1422 19.2733C33.7319 18.9075 34.2407 18.4251 34.6375 17.8557C35.0343 17.2864 35.3107 16.642 35.4499 15.9621C35.589 15.2822 35.5879 14.5811 35.4467 13.9016L34.45 8.91831Z" fill="#2C9F76"/>
</svg>
