<svg width="100" height="100" viewBox="0 0 100 100" fill="none" xmlns="http://www.w3.org/2000/svg">
<path d="M50.4166 77.2917L49.9999 77.7083L49.5416 77.2917C29.7499 59.3333 16.6666 47.4583 16.6666 35.4167C16.6666 27.0833 22.9166 20.8333 31.2499 20.8333C37.6666 20.8333 43.9166 25 46.1249 30.6667H53.8749C56.0833 25 62.3333 20.8333 68.7499 20.8333C77.0832 20.8333 83.3332 27.0833 83.3332 35.4167C83.3332 47.4583 70.2499 59.3333 50.4166 77.2917ZM68.7499 12.5C61.4999 12.5 54.5416 15.875 49.9999 21.1667C45.4583 15.875 38.4999 12.5 31.2499 12.5C18.4166 12.5 8.33325 22.5417 8.33325 35.4167C8.33325 51.125 22.4999 64 43.9583 83.4583L49.9999 88.9583L56.0416 83.4583C77.4999 64 91.6666 51.125 91.6666 35.4167C91.6666 22.5417 81.5832 12.5 68.7499 12.5Z" fill="#26BC86"/>
</svg>
