<svg width="20" height="20" viewBox="0 0 20 20" fill="none" xmlns="http://www.w3.org/2000/svg">
<path d="M9.99996 17.5L8.79163 16.4166C7.38885 15.1528 6.22913 14.0625 5.31246 13.1458C4.39579 12.2291 3.66663 11.4061 3.12496 10.6766C2.58329 9.94776 2.20496 9.27776 1.98996 8.66665C1.77496 8.05553 1.66718 7.43053 1.66663 6.79165C1.66663 5.48609 2.10413 4.39581 2.97913 3.52081C3.85413 2.64581 4.9444 2.20831 6.24996 2.20831C6.97218 2.20831 7.65968 2.36109 8.31246 2.66665C8.96524 2.9722 9.52774 3.40276 9.99996 3.95831C10.4722 3.40276 11.0347 2.9722 11.6875 2.66665C12.3402 2.36109 13.0277 2.20831 13.75 2.20831C15.0555 2.20831 16.1458 2.64581 17.0208 3.52081C17.8958 4.39581 18.3333 5.48609 18.3333 6.79165C18.3333 7.43053 18.2255 8.05553 18.01 8.66665C17.7944 9.27776 17.4161 9.94776 16.875 10.6766C16.3333 11.4061 15.6041 12.2291 14.6875 13.1458C13.7708 14.0625 12.6111 15.1528 11.2083 16.4166L9.99996 17.5ZM9.99996 15.25C11.3333 14.0555 12.4305 13.0311 13.2916 12.1766C14.1527 11.3222 14.8333 10.5794 15.3333 9.94831C15.8333 9.31609 16.1805 8.75331 16.375 8.25998C16.5694 7.76665 16.6666 7.2772 16.6666 6.79165C16.6666 5.95831 16.3888 5.26387 15.8333 4.70831C15.2777 4.15276 14.5833 3.87498 13.75 3.87498C13.0972 3.87498 12.493 4.05887 11.9375 4.42665C11.3819 4.79442 11 5.26331 10.7916 5.83331H9.20829C8.99996 5.26387 8.61801 4.79498 8.06246 4.42665C7.5069 4.05831 6.90274 3.87442 6.24996 3.87498C5.41663 3.87498 4.72218 4.15276 4.16663 4.70831C3.61107 5.26387 3.33329 5.95831 3.33329 6.79165C3.33329 7.27776 3.43051 7.76748 3.62496 8.26081C3.8194 8.75415 4.16663 9.31665 4.66663 9.94831C5.16663 10.58 5.84718 11.323 6.70829 12.1775C7.5694 13.0319 8.66663 14.0561 9.99996 15.25Z" fill="white"/>
</svg>
