<svg width="84" height="84" viewBox="0 0 84 84" fill="none" xmlns="http://www.w3.org/2000/svg">
<path d="M79.5 79.5L54.5 54.5M4.5 33.6667C4.5 37.4969 5.25442 41.2896 6.72018 44.8283C8.18594 48.3669 10.3343 51.5822 13.0427 54.2906C15.7511 56.999 18.9664 59.1474 22.5051 60.6132C26.0437 62.0789 29.8364 62.8333 33.6667 62.8333C37.4969 62.8333 41.2896 62.0789 44.8283 60.6132C48.3669 59.1474 51.5822 56.999 54.2906 54.2906C56.999 51.5822 59.1474 48.3669 60.6132 44.8283C62.0789 41.2896 62.8333 37.4969 62.8333 33.6667C62.8333 29.8364 62.0789 26.0437 60.6132 22.5051C59.1474 18.9664 56.999 15.7511 54.2906 13.0427C51.5822 10.3343 48.3669 8.18594 44.8283 6.72018C41.2896 5.25442 37.4969 4.5 33.6667 4.5C29.8364 4.5 26.0437 5.25442 22.5051 6.72018C18.9664 8.18594 15.7511 10.3343 13.0427 13.0427C10.3343 15.7511 8.18594 18.9664 6.72018 22.5051C5.25442 26.0437 4.5 29.8364 4.5 33.6667Z" stroke="#26BC86" stroke-width="8.33333" stroke-linecap="round" stroke-linejoin="round"/>
</svg>
