<svg width="20" height="20" viewBox="0 0 20 20" fill="none" xmlns="http://www.w3.org/2000/svg">
<path d="M13.35 14.675C11.843 15.8448 9.9468 16.3963 8.04746 16.2173C6.14812 16.0382 4.3884 15.1421 3.12648 13.7114C1.86456 12.2806 1.19531 10.4227 1.25495 8.51588C1.31459 6.60906 2.09865 4.79663 3.44752 3.44752C4.79663 2.09865 6.60906 1.31459 8.51588 1.25495C10.4227 1.19531 12.2806 1.86456 13.7114 3.12648C15.1421 4.3884 16.0382 6.14812 16.2173 8.04746C16.3963 9.9468 15.8448 11.843 14.675 13.35L18.475 17.15C18.5984 17.2646 18.6886 17.4104 18.7362 17.5719C18.7837 17.7335 18.7867 17.9049 18.745 18.068C18.7033 18.2312 18.6184 18.3801 18.4991 18.499C18.3799 18.6179 18.2308 18.7025 18.0675 18.7438C17.9046 18.7855 17.7333 18.7826 17.5719 18.7353C17.4104 18.688 17.2647 18.5981 17.15 18.475L13.35 14.675ZM14.375 8.75002C14.3861 8.00453 14.2489 7.26426 13.9713 6.57229C13.6937 5.88032 13.2813 5.25046 12.758 4.71934C12.2348 4.18822 11.6111 3.76645 10.9234 3.47857C10.2356 3.19068 9.49747 3.04243 8.75189 3.04243C8.00632 3.04243 7.26818 3.19068 6.58043 3.47857C5.89267 3.76645 5.26903 4.18822 4.74577 4.71934C4.22251 5.25046 3.81009 5.88032 3.53249 6.57229C3.25489 7.26426 3.11765 8.00453 3.12877 8.75002C3.15079 10.2268 3.75291 11.6357 4.80506 12.6723C5.8572 13.7089 7.27491 14.2899 8.75189 14.2899C10.2289 14.2899 11.6466 13.7089 12.6987 12.6723C13.7509 11.6357 14.353 10.2268 14.375 8.75002Z" fill="#26BC86"/>
</svg>
